<mxfile host="app.diagrams.net" modified="2024-03-07T11:43:35.759Z" agent="Mozilla/5.0 (Windows NT 10.0; Win64; x64) AppleWebKit/537.36 (KHTML, like Gecko) Chrome/122.0.0.0 Safari/537.36" etag="jw3D7dtRPIujkZQeKqr1" version="24.0.2" type="github">
  <diagram name="Page-1" id="MUCW26529rn52MAqk1Qs">
    <mxGraphModel dx="1434" dy="858" grid="1" gridSize="10" guides="1" tooltips="1" connect="1" arrows="1" fold="1" page="1" pageScale="1" pageWidth="827" pageHeight="1169" math="0" shadow="0">
      <root>
        <mxCell id="0" />
        <mxCell id="1" parent="0" />
        <mxCell id="UqnTuX9J4pZdpapWi_6r-5" style="edgeStyle=orthogonalEdgeStyle;rounded=0;orthogonalLoop=1;jettySize=auto;html=1;exitX=1;exitY=0.5;exitDx=0;exitDy=0;entryX=0;entryY=0.5;entryDx=0;entryDy=0;endArrow=ERmany;endFill=0;" edge="1" parent="1" source="UqnTuX9J4pZdpapWi_6r-1" target="UqnTuX9J4pZdpapWi_6r-3">
          <mxGeometry relative="1" as="geometry">
            <mxPoint x="380" y="455" as="targetPoint" />
          </mxGeometry>
        </mxCell>
        <mxCell id="UqnTuX9J4pZdpapWi_6r-7" value="&lt;div&gt;&lt;br&gt;&lt;/div&gt;&lt;div&gt;&lt;br&gt;&lt;/div&gt;" style="edgeLabel;html=1;align=center;verticalAlign=middle;resizable=0;points=[];" vertex="1" connectable="0" parent="UqnTuX9J4pZdpapWi_6r-5">
          <mxGeometry x="0.1125" y="-1" relative="1" as="geometry">
            <mxPoint as="offset" />
          </mxGeometry>
        </mxCell>
        <mxCell id="UqnTuX9J4pZdpapWi_6r-1" value="Student" style="rounded=0;whiteSpace=wrap;html=1;" vertex="1" parent="1">
          <mxGeometry x="150" y="430" width="120" height="50" as="geometry" />
        </mxCell>
        <mxCell id="UqnTuX9J4pZdpapWi_6r-3" value="Course" style="rounded=0;whiteSpace=wrap;html=1;" vertex="1" parent="1">
          <mxGeometry x="334" y="430" width="80" height="40" as="geometry" />
        </mxCell>
      </root>
    </mxGraphModel>
  </diagram>
</mxfile>
